<svg xmlns="http://www.w3.org/2000/svg" xmlns:xlink="http://www.w3.org/1999/xlink" width="500" zoomAndPan="magnify" viewBox="0 0 375 374.999991" height="500" preserveAspectRatio="xMidYMid meet" version="1.0"><defs><g/><clipPath id="fe620212bc"><path d="M 92.085938 152.535156 L 138 152.535156 L 138 198 L 92.085938 198 Z M 92.085938 152.535156 " clip-rule="nonzero"/></clipPath><clipPath id="e0d9253c90"><path d="M 237 193 L 282.730469 193 L 282.730469 238.414062 L 237 238.414062 Z M 237 193 " clip-rule="nonzero"/></clipPath></defs><g clip-path="url(#fe620212bc)"><path fill="#000000" d="M 93.960938 197.5 L 92.085938 197.5 L 92.085938 152.019531 L 137.566406 152.019531 L 137.566406 153.894531 L 93.960938 153.894531 Z M 93.960938 197.5 " fill-opacity="1" fill-rule="nonzero"/></g><g clip-path="url(#e0d9253c90)"><path fill="#000000" d="M 282.910156 238.757812 L 237.433594 238.757812 L 237.433594 236.882812 L 281.035156 236.882812 L 281.035156 193.28125 L 282.910156 193.28125 Z M 282.910156 238.757812 " fill-opacity="1" fill-rule="nonzero"/></g><g fill="#000000" fill-opacity="1"><g transform="translate(137.481945, 196.636789)"><g><path d="M 1.8125 -15.921875 L 1.8125 -6.140625 C 1.8125 -5.515625 1.875 -4.828125 2 -4.078125 C 2.125 -3.328125 2.410156 -2.628906 2.859375 -1.984375 C 3.316406 -1.335938 3.992188 -0.800781 4.890625 -0.375 C 5.785156 0.0507812 7.003906 0.265625 8.546875 0.265625 C 9.515625 0.265625 10.375 0.113281 11.125 -0.1875 C 11.875 -0.488281 12.503906 -0.90625 13.015625 -1.4375 C 13.523438 -1.96875 13.90625 -2.582031 14.15625 -3.28125 C 14.414062 -3.988281 14.546875 -4.742188 14.546875 -5.546875 L 14.546875 -15.921875 L 13.546875 -15.921875 L 13.546875 -6.296875 C 13.546875 -5.960938 13.535156 -5.625 13.515625 -5.28125 C 13.503906 -4.945312 13.460938 -4.609375 13.390625 -4.265625 C 13.316406 -3.921875 13.195312 -3.582031 13.03125 -3.25 C 12.875 -2.914062 12.644531 -2.582031 12.34375 -2.25 C 11.800781 -1.65625 11.1875 -1.253906 10.5 -1.046875 C 9.820312 -0.835938 9.109375 -0.734375 8.359375 -0.734375 C 7.722656 -0.734375 7.160156 -0.828125 6.671875 -1.015625 C 6.179688 -1.210938 5.71875 -1.507812 5.28125 -1.90625 C 4.925781 -2.207031 4.65625 -2.507812 4.46875 -2.8125 C 4.289062 -3.125 4.15625 -3.425781 4.0625 -3.71875 C 3.976562 -4.007812 3.925781 -4.304688 3.90625 -4.609375 C 3.894531 -4.910156 3.890625 -5.21875 3.890625 -5.53125 L 3.890625 -15.921875 Z M 1.8125 -15.921875 "/></g></g></g><g fill="#000000" fill-opacity="1"><g transform="translate(156.388893, 196.636789)"><g><path d="M 0.84375 -4.03125 C 0.875 -3.375 1.039062 -2.78125 1.34375 -2.25 C 1.65625 -1.71875 2.082031 -1.265625 2.625 -0.890625 C 3.164062 -0.523438 3.796875 -0.238281 4.515625 -0.03125 C 5.242188 0.164062 6.039062 0.265625 6.90625 0.265625 C 7.789062 0.265625 8.582031 0.160156 9.28125 -0.046875 C 9.988281 -0.253906 10.59375 -0.554688 11.09375 -0.953125 C 11.59375 -1.347656 11.976562 -1.828125 12.25 -2.390625 C 12.519531 -2.953125 12.65625 -3.570312 12.65625 -4.25 C 12.65625 -5.1875 12.421875 -5.953125 11.953125 -6.546875 C 11.484375 -7.148438 10.894531 -7.648438 10.1875 -8.046875 C 9.488281 -8.453125 8.722656 -8.789062 7.890625 -9.0625 C 7.066406 -9.34375 6.300781 -9.632812 5.59375 -9.9375 C 4.894531 -10.238281 4.3125 -10.585938 3.84375 -10.984375 C 3.375 -11.378906 3.140625 -11.898438 3.140625 -12.546875 C 3.140625 -12.910156 3.21875 -13.25 3.375 -13.5625 C 3.53125 -13.882812 3.765625 -14.160156 4.078125 -14.390625 C 4.390625 -14.628906 4.769531 -14.820312 5.21875 -14.96875 C 5.675781 -15.113281 6.203125 -15.1875 6.796875 -15.1875 C 7.785156 -15.1875 8.625 -14.976562 9.3125 -14.5625 C 10 -14.144531 10.40625 -13.488281 10.53125 -12.59375 L 12.078125 -12.59375 C 11.984375 -13.15625 11.773438 -13.660156 11.453125 -14.109375 C 11.140625 -14.554688 10.738281 -14.929688 10.25 -15.234375 C 9.769531 -15.546875 9.222656 -15.78125 8.609375 -15.9375 C 7.992188 -16.101562 7.351562 -16.1875 6.6875 -16.1875 C 5.988281 -16.1875 5.320312 -16.09375 4.6875 -15.90625 C 4.0625 -15.726562 3.507812 -15.460938 3.03125 -15.109375 C 2.550781 -14.765625 2.171875 -14.328125 1.890625 -13.796875 C 1.617188 -13.265625 1.484375 -12.660156 1.484375 -11.984375 C 1.484375 -11.085938 1.707031 -10.363281 2.15625 -9.8125 C 2.613281 -9.269531 3.1875 -8.816406 3.875 -8.453125 C 4.5625 -8.085938 5.304688 -7.773438 6.109375 -7.515625 C 6.921875 -7.265625 7.671875 -6.972656 8.359375 -6.640625 C 9.046875 -6.316406 9.613281 -5.921875 10.0625 -5.453125 C 10.519531 -4.984375 10.75 -4.351562 10.75 -3.5625 C 10.75 -2.582031 10.390625 -1.863281 9.671875 -1.40625 C 8.953125 -0.957031 7.992188 -0.734375 6.796875 -0.734375 C 5.835938 -0.734375 5.070312 -0.859375 4.5 -1.109375 C 3.925781 -1.359375 3.488281 -1.65625 3.1875 -2 C 2.882812 -2.351562 2.675781 -2.710938 2.5625 -3.078125 C 2.457031 -3.453125 2.398438 -3.769531 2.390625 -4.03125 Z M 0.84375 -4.03125 "/></g></g></g><g fill="#000000" fill-opacity="1"><g transform="translate(173.137187, 196.636789)"><g><path d="M 4.28125 -15.921875 L 2.734375 -15.921875 L 2.734375 0 L 3.734375 0 L 3.734375 -12.984375 L 3.8125 -12.984375 L 10.84375 0.265625 L 11.25 0.265625 L 18.4375 -12.890625 L 18.53125 -12.890625 L 18.53125 0 L 20.59375 0 L 20.59375 -15.921875 L 19.03125 -15.921875 L 11.65625 -2.25 L 11.578125 -2.25 Z M 4.28125 -15.921875 "/></g></g></g><g fill="#000000" fill-opacity="1"><g transform="translate(198.997242, 196.636789)"><g><path d="M 11.578125 -4.6875 L 13.75 0 L 15.953125 0 L 8.546875 -15.921875 L 7.40625 -15.921875 L 0.6875 0 L 1.734375 0 L 3.734375 -4.6875 Z M 11.09375 -5.703125 L 4.15625 -5.703125 L 7.4375 -13.375 L 7.53125 -13.375 Z M 11.09375 -5.703125 "/></g></g></g><g fill="#000000" fill-opacity="1"><g transform="translate(218.176858, 196.636789)"><g><path d="M 15.546875 -15.921875 L 15.546875 -3.75 L 15.453125 -3.75 L 2.84375 -16.1875 L 2.734375 -16.1875 L 2.734375 0 L 3.78125 0 L 3.78125 -12.15625 L 3.859375 -12.15625 L 16.484375 0.265625 L 16.59375 0.265625 L 16.59375 -15.921875 Z M 15.546875 -15.921875 "/></g></g></g><g fill="#000000" fill-opacity="1"><g transform="translate(181.972266, 212.257077)"><g><path d="M 0.15625 0 L 2.296875 -5.515625 L 2.890625 -5.515625 L 5.015625 0 L 4.15625 0 L 3.734375 -1.203125 L 1.453125 -1.203125 L 1.015625 0 Z M 1.71875 -1.90625 L 3.46875 -1.90625 L 2.59375 -4.359375 Z M 1.71875 -1.90625 "/></g></g></g><g fill="#000000" fill-opacity="1"><g transform="translate(188.01923, 212.257077)"><g><path d="M 1.3125 0.078125 C 1.050781 0.078125 0.863281 0.00390625 0.75 -0.140625 C 0.644531 -0.285156 0.59375 -0.5 0.59375 -0.78125 L 0.59375 -5.515625 L 1.359375 -5.515625 L 1.359375 -0.828125 C 1.359375 -0.804688 1.363281 -0.773438 1.375 -0.734375 C 1.394531 -0.703125 1.421875 -0.671875 1.453125 -0.640625 C 1.492188 -0.609375 1.546875 -0.59375 1.609375 -0.59375 C 1.660156 -0.59375 1.710938 -0.59375 1.765625 -0.59375 C 1.828125 -0.601562 1.882812 -0.613281 1.9375 -0.625 L 1.9375 0 C 1.851562 0.0195312 1.753906 0.0351562 1.640625 0.046875 C 1.535156 0.0664062 1.425781 0.078125 1.3125 0.078125 Z M 1.3125 0.078125 "/></g></g></g><g fill="#000000" fill-opacity="1"><g transform="translate(191.023731, 212.257077)"><g><path d="M 0.59375 -4.703125 L 0.59375 -5.515625 L 1.40625 -5.515625 L 1.40625 -4.703125 Z M 0.625 0 L 0.625 -3.90625 L 1.375 -3.90625 L 1.375 0 Z M 0.625 0 "/></g></g></g><path stroke-linecap="round" transform="matrix(0.75, 0, 0, 0.75, 140.218486, 209.889229)" fill="none" stroke-linejoin="miter" d="M 1.000352 1.001862 L 41.838897 1.001862 " stroke="#000000" stroke-width="2" stroke-opacity="1" stroke-miterlimit="4"/><path stroke-linecap="round" transform="matrix(0.75, 0, 0, 0.75, 206.198633, 209.139229)" fill="none" stroke-linejoin="miter" d="M 1.000781 1.001862 L 38.79245 1.001862 " stroke="#000000" stroke-width="2" stroke-opacity="1" stroke-miterlimit="4"/></svg>